<svg xmlns="http://www.w3.org/2000/svg" viewBox="0.004441738128662109 0.0044422149658203125 145.8661346435547 145.8311309814453"><title>Daniel Schimkat</title>
    <path d="M109.19 72.92a17.75 17.75 0 0 0-17.75-17.75H9.64l-3.9 3.9a19.59 19.59 0 0 0 0 27.7l3.9 3.91h81.8a17.76 17.76 0 0 0 17.75-17.76z" fill="#f4e3dd"></path>
    <path d="M59.07 5.74L37 27.83h53.44a44.9 44.9 0 0 1 29 10.57L86.77 5.74a19.59 19.59 0 0 0-27.7 0zm81.04 53.33L125 43.93a44.9 44.9 0 0 1 10.57 29 44.91 44.91 0 0 1-10.57 29l15.15-15.15a19.59 19.59 0 0 0-.04-27.71zM37 118l22.09 22.1a19.59 19.59 0 0 0 27.7 0l32.66-32.66a44.9 44.9 0 0 1-29 10.56z" fill="#fc7016"></path>
</svg>